<?xml version="1.0" standalone="no"?>
<!DOCTYPE svg PUBLIC "-//W3C//DTD SVG 20010904//EN"
 "http://www.w3.org/TR/2001/REC-SVG-20010904/DTD/svg10.dtd">
<svg version="1.0" xmlns="http://www.w3.org/2000/svg"
 width="1848.000000pt" height="475.000000pt" viewBox="0 0 1848.000000 475.000000"
 preserveAspectRatio="xMidYMid meet">

<g transform="translate(0.000000,475.000000) scale(0.100000,-0.100000)"
fill="#000000" stroke="none">
<path d="M1761 3400 c-256 -68 -421 -284 -421 -553 0 -162 56 -272 186 -364
81 -58 185 -100 425 -173 112 -34 236 -77 275 -95 135 -65 223 -171 243 -292
21 -129 -24 -285 -108 -376 -48 -52 -154 -110 -229 -126 -74 -15 -274 -13
-353 3 -218 47 -373 223 -445 509 -10 42 -22 67 -30 67 -12 0 -14 -51 -14
-295 0 -278 1 -295 18 -295 10 0 28 13 40 30 30 40 72 40 194 0 157 -50 218
-61 368 -67 220 -8 348 21 492 116 140 91 239 238 272 403 40 197 -2 347 -129
467 -87 81 -157 112 -485 216 -151 47 -307 102 -345 120 -85 41 -156 101 -193
163 -25 43 -27 56 -27 152 0 89 3 112 23 151 42 86 139 166 237 194 337 98
608 -68 696 -427 8 -36 16 -48 30 -48 18 0 19 12 19 245 l0 245 -24 0 c-14 0
-30 -10 -40 -25 -25 -38 -87 -34 -188 10 -45 20 -109 42 -142 50 -88 21 -254
18 -345 -5z"/>
<path d="M3805 3405 c-293 -64 -558 -287 -701 -589 -74 -156 -88 -223 -88
-421 0 -155 2 -179 27 -269 115 -417 449 -716 841 -753 63 -6 68 -5 64 13 -3
16 -16 20 -73 27 -147 16 -261 70 -347 166 -58 65 -91 122 -127 226 -54 153
-65 249 -66 570 0 382 20 515 106 693 90 187 275 312 461 312 41 0 48 3 48 20
0 17 -6 20 -42 19 -24 0 -70 -7 -103 -14z"/>
<path d="M4010 3401 c0 -18 6 -21 38 -21 21 0 65 -7 97 -16 223 -57 369 -240
428 -534 42 -204 47 -592 12 -820 -56 -360 -216 -552 -497 -593 -64 -9 -78
-14 -78 -29 0 -22 15 -22 112 -4 336 64 638 344 752 695 40 124 50 189 49 326
0 204 -44 362 -149 537 -53 88 -172 221 -256 286 -120 92 -315 175 -444 188
-61 6 -64 6 -64 -15z"/>
<path d="M12083 2438 l-370 -983 -262 -3 -261 -2 2 942 3 943 153 3 c127 2
152 5 152 17 0 13 -41 15 -307 13 l-307 -3 -252 -733 c-139 -404 -255 -736
-257 -738 -2 -2 -118 329 -258 736 l-254 740 -312 0 c-269 0 -313 -2 -313 -15
0 -12 26 -15 153 -17 l152 -3 3 -942 2 -943 -155 0 c-148 0 -155 -1 -155 -20
0 -20 7 -20 331 -20 309 0 330 1 327 18 -3 15 -20 17 -156 20 l-152 3 1 927
c0 906 1 926 19 877 9 -27 156 -448 325 -935 168 -487 310 -888 314 -893 4 -4
153 415 330 930 178 516 327 945 332 953 5 8 9 -399 9 -922 l0 -938 -155 0
c-148 0 -155 -1 -155 -20 0 -20 7 -20 725 -20 718 0 725 0 725 20 0 19 -7 20
-151 20 -139 0 -151 1 -146 18 3 14 213 570 287 762 10 25 81 214 160 420 78
206 145 381 149 388 5 8 68 -146 158 -385 83 -219 219 -577 302 -796 83 -219
151 -400 151 -402 0 -3 -67 -5 -150 -5 -139 0 -150 -1 -150 -19 0 -17 33 -18
938 -23 541 -3 969 -1 1012 4 112 13 185 35 289 84 209 98 366 252 456 446
132 286 117 702 -33 968 -140 247 -411 414 -744 460 -125 18 -1088 3 -1088
-16 0 -11 31 -14 155 -14 l155 0 0 -945 0 -945 -269 0 -269 0 -32 83 c-17 45
-185 487 -373 982 l-342 900 -36 3 -35 3 -371 -983z m2449 887 c162 -28 286
-93 390 -203 149 -159 212 -374 212 -732 0 -281 -29 -419 -130 -610 -102 -194
-236 -290 -454 -326 -85 -14 -394 -19 -437 -8 l-23 6 0 944 0 944 179 0 c112
0 210 -5 263 -15z"/>
<path d="M5090 3355 c0 -12 26 -15 153 -17 l152 -3 3 -942 2 -943 -155 0
c-148 0 -155 -1 -155 -20 0 -20 7 -20 331 -20 309 0 330 1 327 18 -3 15 -20
17 -156 20 l-152 3 1 927 c0 906 1 926 19 877 9 -27 156 -448 325 -935 168
-487 310 -888 314 -893 4 -4 153 415 330 930 178 516 327 945 332 953 5 8 9
-399 9 -922 l0 -938 -155 0 c-148 0 -155 -1 -155 -20 0 -20 7 -20 445 -20 438
0 445 0 445 20 0 19 -7 20 -155 20 l-155 0 2 943 3 942 153 3 c127 2 152 5
152 17 0 13 -41 15 -307 13 l-307 -3 -252 -733 c-139 -404 -255 -736 -257
-738 -2 -2 -118 329 -258 736 l-254 740 -312 0 c-269 0 -313 -2 -313 -15z"/>
<path d="M7400 3355 c0 -13 24 -15 155 -15 l155 0 0 -945 0 -945 -155 0 c-148
0 -155 -1 -155 -20 0 -20 7 -20 845 -20 l845 0 0 300 c0 287 -1 300 -19 300
-14 0 -20 -10 -25 -42 -12 -77 -57 -192 -102 -265 -57 -92 -140 -167 -234
-212 l-75 -36 -322 -3 -323 -3 0 496 0 497 168 -4 c161 -3 169 -4 213 -30 86
-51 129 -122 172 -283 17 -63 29 -91 40 -93 16 -3 17 32 17 428 0 392 -1 431
-16 428 -11 -2 -25 -33 -43 -94 -54 -180 -112 -258 -216 -290 -28 -8 -111 -18
-192 -21 l-143 -6 0 431 0 432 233 0 c127 0 264 -5 303 -10 195 -25 306 -125
395 -354 16 -41 34 -72 43 -74 14 -3 16 23 16 232 l0 236 -790 0 c-696 0 -790
-2 -790 -15z"/>
<path d="M15650 3355 c0 -13 24 -15 155 -15 l155 0 0 -945 0 -945 -155 0
c-148 0 -155 -1 -155 -20 0 -20 7 -20 845 -20 l845 0 0 300 c0 287 -1 300 -19
300 -14 0 -20 -10 -25 -42 -12 -77 -57 -192 -102 -265 -57 -92 -140 -167 -234
-212 l-75 -36 -322 -3 -323 -3 0 496 0 497 168 -4 c161 -3 169 -4 213 -30 86
-51 129 -122 172 -283 17 -63 29 -91 40 -93 16 -3 17 32 17 428 0 392 -1 431
-16 428 -11 -2 -25 -33 -43 -94 -54 -180 -112 -258 -216 -290 -28 -8 -111 -18
-192 -21 l-143 -6 0 431 0 432 233 0 c127 0 264 -5 303 -10 195 -25 306 -125
395 -354 16 -41 34 -72 43 -74 14 -3 16 23 16 232 l0 236 -790 0 c-696 0 -790
-2 -790 -15z"/>
</g>
</svg>
